<?xml version="1.0" encoding="UTF-8" standalone="no"?>
<svg
   xmlns:dc="http://purl.org/dc/elements/1.1/"
   xmlns:cc="http://creativecommons.org/ns#"
   xmlns:rdf="http://www.w3.org/1999/02/22-rdf-syntax-ns#"
   xmlns:svg="http://www.w3.org/2000/svg"
   xmlns="http://www.w3.org/2000/svg"
   xmlns:sodipodi="http://sodipodi.sourceforge.net/DTD/sodipodi-0.dtd"
   xmlns:inkscape="http://www.inkscape.org/namespaces/inkscape"
   width="150"
   height="30"
   viewBox="0 0 39.687498 7.9375005"
   version="1.1"
   id="svg2381"
   inkscape:version="1.0.2 (e86c870879, 2021-01-15)"
   sodipodi:docname="ohjenuoli.svg">
  <defs
     id="defs2375">
    <marker
       style="overflow:visible"
       id="marker10129"
       refX="0"
       refY="0"
       orient="auto"
       inkscape:stockid="TriangleInS"
       inkscape:isstock="true">
      <path
         transform="scale(-0.2)"
         style="fill:#3e3e40;fill-opacity:1;fill-rule:evenodd;stroke:#3e3e40;stroke-width:1pt;stroke-opacity:1"
         d="M 5.77,0 -2.88,5 V -5 Z"
         id="path10127" />
    </marker>
    <marker
       style="overflow:visible"
       id="marker10139"
       refX="0"
       refY="0"
       orient="auto"
       inkscape:stockid="TriangleInS"
       inkscape:isstock="true">
      <path
         transform="scale(-0.2)"
         style="fill:#3e3e40;fill-opacity:1;fill-rule:evenodd;stroke:#3e3e40;stroke-width:1pt;stroke-opacity:1"
         d="M 5.77,0 -2.88,5 V -5 Z"
         id="path10137" />
    </marker>
  </defs>
  <sodipodi:namedview
     id="base"
     pagecolor="#ffffff"
     bordercolor="#666666"
     borderopacity="1.0"
     inkscape:pageopacity="0.0"
     inkscape:pageshadow="2"
     inkscape:zoom="5.6"
     inkscape:cx="73.242934"
     inkscape:cy="20.952952"
     inkscape:document-units="px"
     inkscape:current-layer="layer1"
     inkscape:document-rotation="0"
     showgrid="false"
     units="px"
     inkscape:window-width="1920"
     inkscape:window-height="1136"
     inkscape:window-x="0"
     inkscape:window-y="27"
     inkscape:window-maximized="1" />
  <metadata
     id="metadata2378">
    <rdf:RDF>
      <cc:Work
         rdf:about="">
        <dc:format>image/svg+xml</dc:format>
        <dc:type
           rdf:resource="http://purl.org/dc/dcmitype/StillImage" />
        <dc:title></dc:title>
      </cc:Work>
    </rdf:RDF>
  </metadata>
  <g
     inkscape:label="Taso 1"
     inkscape:groupmode="layer"
     id="layer1"
     style="mix-blend-mode:normal">
    <g
       id="g3790"
       transform="matrix(0.7050039,0,0,0.7050039,0.07805105,0.07805105)"
       style="stroke-width:1.41843">
      <path
         id="path3471"
         style="color:#000000;font-style:normal;font-variant:normal;font-weight:normal;font-stretch:normal;font-size:medium;line-height:normal;font-family:sans-serif;font-variant-ligatures:normal;font-variant-position:normal;font-variant-caps:normal;font-variant-numeric:normal;font-variant-alternates:normal;font-variant-east-asian:normal;font-feature-settings:normal;font-variation-settings:normal;text-indent:0;text-align:start;text-decoration:none;text-decoration-line:none;text-decoration-style:solid;text-decoration-color:#000000;letter-spacing:normal;word-spacing:normal;text-transform:none;writing-mode:lr-tb;direction:ltr;text-orientation:mixed;dominant-baseline:auto;baseline-shift:baseline;text-anchor:start;white-space:normal;shape-padding:0;shape-margin:0;inline-size:0;clip-rule:nonzero;display:inline;overflow:visible;visibility:visible;isolation:auto;mix-blend-mode:normal;color-interpolation:sRGB;color-interpolation-filters:linearRGB;solid-color:#000000;solid-opacity:1;vector-effect:none;fill:#3e3e40;fill-opacity:1;fill-rule:nonzero;stroke:none;stroke-width:17.0212;stroke-linecap:butt;stroke-linejoin:miter;stroke-miterlimit:4;stroke-dasharray:none;stroke-dashoffset:0;stroke-opacity:1;color-rendering:auto;image-rendering:auto;shape-rendering:auto;text-rendering:auto;enable-background:accumulate;stop-color:#000000"
         d="m 59.646484,5.0058594 -25.55664,14.7695316 2.390625,1.388671 23.166015,13.382813 v -8.769531 h 6.363282 V 13.775391 h -6.363282 z m 78.742186,0.2207031 v 8.7695315 h -6.36328 v 12.001953 h 6.36328 v 8.771484 l 25.55664,-14.771484 -2.40039,-1.388672 z M 68.710938,13.775391 v 12.001953 h 5.041015 V 13.775391 Z m 7.74414,0 v 12.001953 h 5.048828 V 13.775391 Z m 40.076172,0.220703 v 12.001953 h 5.04883 V 13.996094 Z m 7.74219,0 v 12.001953 h 5.05078 V 13.996094 Z"
         transform="scale(0.26458333)" />
      <path
         id="path3378"
         style="color:#000000;font-style:normal;font-variant:normal;font-weight:bold;font-stretch:normal;font-size:9.66618px;line-height:1.25;font-family:Rosarivo;-inkscape-font-specification:'Rosarivo Bold';font-variant-ligatures:normal;font-variant-position:normal;font-variant-caps:normal;font-variant-numeric:normal;font-variant-alternates:normal;font-variant-east-asian:normal;font-feature-settings:normal;font-variation-settings:normal;text-indent:0;text-align:start;text-decoration:none;text-decoration-line:none;text-decoration-style:solid;text-decoration-color:#000000;letter-spacing:0px;word-spacing:0px;text-transform:none;writing-mode:lr-tb;direction:ltr;text-orientation:mixed;dominant-baseline:auto;baseline-shift:baseline;text-anchor:start;white-space:normal;shape-padding:0;shape-margin:0;inline-size:0;clip-rule:nonzero;display:inline;overflow:visible;visibility:visible;isolation:auto;mix-blend-mode:normal;color-interpolation:sRGB;color-interpolation-filters:linearRGB;solid-color:#000000;solid-opacity:1;vector-effect:none;fill:#d7d7d9;fill-opacity:1;fill-rule:nonzero;stroke:none;stroke-width:1.41842;stroke-linecap:butt;stroke-linejoin:miter;stroke-miterlimit:4;stroke-dasharray:none;stroke-dashoffset:0;stroke-opacity:1;color-rendering:auto;image-rendering:auto;shape-rendering:auto;text-rendering:auto;enable-background:accumulate;stop-color:#000000"
         d="m 99.015625,1 c -10.445688,2e-6 -18.972656,8.5397293 -18.972656,18.994141 0,10.454412 8.526968,19 18.972656,19 10.445695,3e-6 18.970705,-8.545586 18.970705,-19 C 117.98633,9.5397274 109.46132,0.99999951 99.015625,1 Z m 78.035345,3.2382812 -9.01563,20.4746098 c -1.14382,2.583723 -2.00771,4.241414 -2.59179,4.972656 -0.55975,0.731242 -1.46195,1.268129 -2.70313,1.609375 l -0.0723,0.291016 c 0,0.243746 0.0727,0.452423 0.21875,0.623046 1.14382,-0.194997 2.4824,-0.292968 4.01562,-0.292968 l 3.86914,0.109375 c 0.0488,-0.146248 0.0742,-0.329457 0.0742,-0.548829 0,-0.21937 -0.0255,-0.413361 -0.0742,-0.583984 -1.14383,0 -1.99494,-0.01269 -2.55469,-0.03711 0,-1.267487 0.60934,-3.413078 1.82618,-6.435547 l 0.91211,-2.339844 5.2207,-0.109375 c 1.82525,0 3.3948,0.03625 4.70898,0.109375 l 2.15235,5.484375 c 0.34073,1.02374 0.51171,1.707582 0.51171,2.048828 0,0.341247 -0.19459,0.656721 -0.58398,0.949219 -0.36505,0.268122 -1.02157,0.513051 -1.9707,0.732422 l -0.0742,0.291016 c 0,0.219373 0.0747,0.428049 0.2207,0.623046 1.38719,-0.194997 3.00393,-0.292968 4.85352,-0.292968 l 4.27148,0.109375 c 0.0729,-0.146248 0.10938,-0.329457 0.10938,-0.548829 0,-0.219373 -0.0364,-0.413361 -0.10938,-0.583984 -0.58408,0 -1.21701,-0.03625 -1.89844,-0.109375 -0.17035,-0.243747 -0.57232,-1.023607 -1.20507,-2.339844 -0.60841,-1.340611 -0.98482,-2.243911 -1.13086,-2.707031 L 177.63495,4.2382812 Z m -171.5587825,0.125 C 3.8794759,5.5747049 2.7282715,6.3813485 2.0371094,6.7851562 1.8067218,7.0735905 1.6914062,7.5071158 1.6914062,8.0839844 5.8383789,11.545195 9.9555464,15.380657 14.044922,19.591797 L 1,30.667969 c 1.2671306,1.845979 1.9873657,3.027693 2.1601562,3.546875 0.3455811,0.403809 0.7765503,0.605468 1.2949219,0.605468 C 8.2564699,30.897607 12.547587,26.97544 17.328125,23.052734 l 12.009766,12.546875 c 1.612711,-1.211423 2.763917,-2.018067 3.455078,-2.421875 0.230388,-0.288434 0.345703,-0.75021 0.345703,-1.384765 C 28.934102,28.158698 24.786641,24.23653 20.697266,20.025391 L 33.744141,8.6035156 C 32.361816,6.5844765 31.613239,5.4008053 31.498047,5.0546875 31.210063,4.6508816 30.805481,4.4492188 30.287109,4.4492188 26.370524,8.5449847 22.051066,12.640562 17.328125,16.736328 Z M 99.015625,7.0019531 c 7.197955,-4e-7 12.970705,5.7753909 12.970705,12.9921879 0,7.216796 -5.77275,13 -12.970705,13 -7.197944,-2e-6 -12.970703,-5.783205 -12.970703,-13 0,-7.216795 5.772759,-12.9921864 12.970703,-12.9921879 z m 77.160345,2.5019531 4.23437,11.1874998 c -1.14382,0.0731 -2.55514,0.109375 -4.23437,0.109375 l -4.67383,-0.146484 z M 99.015625,11.642578 c -4.606745,-5.08e-4 -8.341579,3.739573 -8.341797,8.353516 -8.59e-4,4.614705 3.734291,8.355976 8.341797,8.355468 4.607505,5.07e-4 8.342655,-3.740764 8.341795,-8.355468 -2.2e-4,-4.613942 -3.73505,-8.354023 -8.341795,-8.353516 z M 210.5998,33.123047 c -2.77438,0.243745 -6.13362,0.365234 -10.07618,0.365234 h -9.7832 c -0.14604,0.682493 -0.31703,1.266412 -0.51172,1.753907 0,0.24375 0.12187,0.416171 0.36524,0.513671 2.75005,-0.194997 6.07292,-0.292968 9.96679,-0.292968 h 9.89258 c 0.24338,-1.02374 0.40163,-1.609611 0.47461,-1.75586 0,-0.292496 -0.1091,-0.486484 -0.32812,-0.583984 z"
         transform="scale(0.26458333)"
         sodipodi:nodetypes="sssssccccccccscccccccsccccccscccccccccccccccccccccccssssscccccccccccscccsccc" />
    </g>
  </g>
</svg>
